<svg xmlns="http://www.w3.org/2000/svg" viewBox="0 0 1200 640" font-family="system-ui, -apple-system, 'Segoe UI', Roboto, sans-serif"><defs><marker id="arrow" viewBox="0 0 10 10" refX="8" refY="5" markerWidth="7" markerHeight="7" orient="auto-start-reverse"><path d="M 0 0 L 10 5 L 0 10 z" fill="#9a6700"/></marker></defs><rect x="430" y="20" width="340" height="64" rx="32" fill="rgba(13,122,138,0.07)" stroke="#7aa7bd" stroke-width="2"/><text x="600" y="48" text-anchor="middle" fill="#1f2328" font-size="21" font-weight="700">AI Assistant</text><text x="600" y="70" text-anchor="middle" fill="#57606a" font-size="14">Claude · Claude Code · any MCP client</text><line x1="600" y1="88" x2="600" y2="140" stroke="#9a6700" stroke-width="3" marker-end="url(#arrow)"/><text x="616" y="120" fill="#9a6700" font-size="15" font-weight="600">MCP — 7 code-mode meta-tools, not 90+ schemas</text><rect x="110" y="148" width="980" height="250" rx="20" fill="rgba(13,122,138,0.04)" stroke="#7aa7bd" stroke-width="2.5"/><text x="600" y="190" text-anchor="middle" fill="#1f2328" font-size="24" font-weight="700">GoogleUnlimited MCP Server</text><rect x="135.0" y="212" width="300" height="66" rx="14" fill="rgba(13,122,138,0.07)" stroke="#9dbecf" stroke-width="1.5"/><text x="285.0" y="239" text-anchor="middle" fill="#1f2328" font-size="17" font-weight="650">Sandboxed execute</text><text x="285.0" y="262" text-anchor="middle" fill="#57606a" font-size="14">chain real API calls in one Python block</text><rect x="450.0" y="212" width="300" height="66" rx="14" fill="rgba(13,122,138,0.07)" stroke="#9dbecf" stroke-width="1.5"/><text x="600.0" y="239" text-anchor="middle" fill="#1f2328" font-size="17" font-weight="650">OAuth 2.1 + PKCE</text><text x="600.0" y="262" text-anchor="middle" fill="#57606a" font-size="14">per-user API keys · encrypted credentials</text><rect x="765.0" y="212" width="300" height="66" rx="14" fill="rgba(13,122,138,0.07)" stroke="#9dbecf" stroke-width="1.5"/><text x="915.0" y="239" text-anchor="middle" fill="#1f2328" font-size="17" font-weight="650">Unified middleware</text><text x="915.0" y="262" text-anchor="middle" fill="#57606a" font-size="14">session scoping · tool management</text><rect x="292.5" y="296" width="300" height="66" rx="14" fill="rgba(13,122,138,0.07)" stroke="#9dbecf" stroke-width="1.5"/><text x="442.5" y="323" text-anchor="middle" fill="#1f2328" font-size="17" font-weight="650">Template &amp; card DSL</text><text x="442.5" y="346" text-anchor="middle" fill="#57606a" font-size="14">Jinja2 macros · emails · Chat cards</text><rect x="607.5" y="296" width="300" height="66" rx="14" fill="rgba(13,122,138,0.07)" stroke="#9dbecf" stroke-width="1.5"/><text x="757.5" y="323" text-anchor="middle" fill="#1f2328" font-size="17" font-weight="650">Semantic memory</text><text x="757.5" y="346" text-anchor="middle" fill="#57606a" font-size="14">every response embedded into Qdrant</text><line x1="600" y1="398" x2="112.0" y2="500" stroke="#9a6700" stroke-width="1.8" opacity="0.75"/><line x1="600" y1="398" x2="234.0" y2="500" stroke="#9a6700" stroke-width="1.8" opacity="0.75"/><line x1="600" y1="398" x2="356.0" y2="500" stroke="#9a6700" stroke-width="1.8" opacity="0.75"/><line x1="600" y1="398" x2="478.0" y2="500" stroke="#9a6700" stroke-width="1.8" opacity="0.75"/><line x1="600" y1="398" x2="600.0" y2="500" stroke="#9a6700" stroke-width="1.8" opacity="0.75"/><line x1="600" y1="398" x2="722.0" y2="500" stroke="#9a6700" stroke-width="1.8" opacity="0.75"/><line x1="600" y1="398" x2="844.0" y2="500" stroke="#9a6700" stroke-width="1.8" opacity="0.75"/><line x1="600" y1="398" x2="966.0" y2="500" stroke="#9a6700" stroke-width="1.8" opacity="0.75"/><line x1="600" y1="398" x2="1088.0" y2="500" stroke="#9a6700" stroke-width="1.8" opacity="0.75"/><circle cx="600" cy="398" r="11" fill="none" stroke="#9a6700" stroke-width="6"/><text x="600" y="486" text-anchor="middle" fill="#57606a" font-size="14" letter-spacing="3" font-weight="600">GOOGLE WORKSPACE · 92+ TOOLS</text><rect x="56.0" y="500" width="112" height="54" rx="12" fill="rgba(13,122,138,0.10)" stroke="#9dbecf" stroke-width="1.5"/><text x="112.0" y="533" text-anchor="middle" fill="#1f2328" font-size="16.5" font-weight="600">Gmail</text><rect x="178.0" y="500" width="112" height="54" rx="12" fill="rgba(13,122,138,0.10)" stroke="#9dbecf" stroke-width="1.5"/><text x="234.0" y="533" text-anchor="middle" fill="#1f2328" font-size="16.5" font-weight="600">Drive</text><rect x="300.0" y="500" width="112" height="54" rx="12" fill="rgba(13,122,138,0.10)" stroke="#9dbecf" stroke-width="1.5"/><text x="356.0" y="533" text-anchor="middle" fill="#1f2328" font-size="16.5" font-weight="600">Sheets</text><rect x="422.0" y="500" width="112" height="54" rx="12" fill="rgba(13,122,138,0.10)" stroke="#9dbecf" stroke-width="1.5"/><text x="478.0" y="533" text-anchor="middle" fill="#1f2328" font-size="16.5" font-weight="600">Docs</text><rect x="544.0" y="500" width="112" height="54" rx="12" fill="rgba(13,122,138,0.10)" stroke="#9dbecf" stroke-width="1.5"/><text x="600.0" y="533" text-anchor="middle" fill="#1f2328" font-size="16.5" font-weight="600">Slides</text><rect x="666.0" y="500" width="112" height="54" rx="12" fill="rgba(13,122,138,0.10)" stroke="#9dbecf" stroke-width="1.5"/><text x="722.0" y="533" text-anchor="middle" fill="#1f2328" font-size="16.5" font-weight="600">Calendar</text><rect x="788.0" y="500" width="112" height="54" rx="12" fill="rgba(13,122,138,0.10)" stroke="#9dbecf" stroke-width="1.5"/><text x="844.0" y="533" text-anchor="middle" fill="#1f2328" font-size="16.5" font-weight="600">Forms</text><rect x="910.0" y="500" width="112" height="54" rx="12" fill="rgba(13,122,138,0.10)" stroke="#9dbecf" stroke-width="1.5"/><text x="966.0" y="533" text-anchor="middle" fill="#1f2328" font-size="16.5" font-weight="600">Chat</text><rect x="1032.0" y="500" width="112" height="54" rx="12" fill="rgba(13,122,138,0.10)" stroke="#9dbecf" stroke-width="1.5"/><text x="1088.0" y="533" text-anchor="middle" fill="#1f2328" font-size="16.5" font-weight="600">Photos</text><text x="600" y="600" text-anchor="middle" fill="#57606a" font-size="14">discover on demand · execute in one block · remember everything</text></svg>